<?xml version="1.0"?>
<svg width="24" height="24" xmlns="http://www.w3.org/2000/svg" xmlns:svg="http://www.w3.org/2000/svg">
 <g class="layer">
  <title>Layer 1</title>
  <path d="m9,3c-3.31,0 -5.86,2.69 -6,6l0,12l9,0l0,-7.54c1.1,0.99 2.5,1.54 4,1.54c3.31,0 6,-2.69 6,-6c0,-3.31 -2.69,-6 -6,-6l-7,0m0,2l2.54,0c-0.99,1.1 -1.54,2.5 -1.54,4l0,3l-1,0l0,1l1,0l0,6l-5,0l0,-6l1,0l0,-1l-1,0l0,-3c0,-2.21 1.79,-4 4,-4m7,0c2.21,0 4,1.79 4,4c0,2.21 -1.79,4 -4,4c-2.21,0 -4,-1.79 -4,-4c0,-2.21 1.79,-4 4,-4m0,2.25c-0.97,0 -1.75,0.78 -1.75,1.75c0,0.97 0.78,1.75 1.75,1.75c0.97,0 1.75,-0.78 1.75,-1.75c0,-0.97 -0.78,-1.75 -1.75,-1.75m-9,4.75l0,1l1,0l0,-1l-1,0z" fill="#ffffff" id="svg_1"/>
 </g>
</svg>