<?xml version="1.0"?>
<svg width="24" height="24" xmlns="http://www.w3.org/2000/svg" xmlns:svg="http://www.w3.org/2000/svg">
 <g class="layer">
  <title>Layer 1</title>
  <path d="m7.5,2c-1.79,1.15 -3,3.18 -3,5.5c0,2.32 1.21,4.35 3.03,5.5c-3.07,0 -5.53,-2.46 -5.53,-5.5a5.5,5.5 0 0 1 5.5,-5.5m11.57,1.5l1.43,1.43l-15.57,15.57l-1.43,-1.43l15.57,-15.57m-6.18,2.43l-1.48,-0.93l-1.44,1l0.42,-1.7l-1.39,-1.06l1.75,-0.12l0.58,-1.65l0.67,1.63l1.73,0.03l-1.35,1.13l0.51,1.67m-3.3,3.61l-1.16,-0.73l-1.12,0.78l0.34,-1.32l-1.09,-0.83l1.36,-0.09l0.45,-1.29l0.51,1.27l1.36,0.03l-1.05,0.87l0.4,1.31m9.41,3.96a5.5,5.5 0 0 1 -5.5,5.5c-1.22,0 -2.35,-0.4 -3.26,-1.07l7.69,-7.69c0.67,0.91 1.07,2.04 1.07,3.26m-4.4,6.58l2.77,-1.15l-0.24,3.35l-2.53,-2.2m4.33,-2.7l1.15,-2.77l2.2,2.54l-3.35,0.23m1.15,-4.96l-1.14,-2.78l3.34,0.24l-2.2,2.54m-10.45,6.51l2.77,1.15l-2.53,2.19l-0.24,-3.34z" fill="#ffffff" id="svg_1"/>
 </g>
</svg>